<svg width="221" height="60" viewBox="0 0 221 60" fill="none" xmlns="http://www.w3.org/2000/svg">
<rect x="145" y="20" width="76" height="20" rx="2" fill="white"/>
<path d="M151.736 32.046C152.119 32.5967 152.515 33.026 152.926 33.334C153.346 33.6327 153.887 33.782 154.55 33.782C154.867 33.782 155.171 33.7307 155.46 33.628C155.749 33.5253 155.987 33.376 156.174 33.18C156.361 32.984 156.454 32.7507 156.454 32.48C156.454 32.0133 156.253 31.6493 155.852 31.388C155.46 31.1267 154.905 30.926 154.186 30.786C153.271 30.5993 152.543 30.2773 152.002 29.82C151.461 29.3533 151.19 28.6813 151.19 27.804C151.19 27.244 151.344 26.7587 151.652 26.348C151.969 25.9373 152.385 25.62 152.898 25.396C153.411 25.172 153.967 25.06 154.564 25.06C155.339 25.06 156.006 25.2093 156.566 25.508C157.126 25.8067 157.565 26.2313 157.882 26.782L156.818 27.832C156.566 27.412 156.249 27.0713 155.866 26.81C155.483 26.5487 155.035 26.418 154.522 26.418C154.009 26.418 153.575 26.5393 153.22 26.782C152.875 27.0153 152.702 27.342 152.702 27.762C152.702 28.238 152.884 28.588 153.248 28.812C153.621 29.0267 154.111 29.1993 154.718 29.33C155.269 29.442 155.791 29.6147 156.286 29.848C156.781 30.0813 157.182 30.3847 157.49 30.758C157.807 31.122 157.966 31.5653 157.966 32.088C157.966 33.0213 157.649 33.7633 157.014 34.314C156.379 34.8647 155.507 35.14 154.396 35.14C153.64 35.14 152.949 34.9907 152.324 34.692C151.708 34.3933 151.167 33.908 150.7 33.236L151.736 32.046ZM167.864 25.186V31.234C167.864 31.9713 167.692 32.634 167.346 33.222C167.01 33.8007 166.544 34.258 165.946 34.594C165.358 34.9207 164.682 35.084 163.916 35.084C163.16 35.084 162.484 34.9207 161.886 34.594C161.289 34.258 160.818 33.8007 160.472 33.222C160.136 32.634 159.968 31.9713 159.968 31.234V25.186H161.48V31.108C161.48 31.5933 161.592 32.0273 161.816 32.41C162.05 32.7927 162.353 33.0913 162.726 33.306C163.1 33.5207 163.496 33.628 163.916 33.628C164.364 33.628 164.78 33.5207 165.162 33.306C165.545 33.0913 165.848 32.7927 166.072 32.41C166.306 32.0273 166.422 31.5933 166.422 31.108V25.186H167.864ZM174.462 25.2C174.984 25.2 175.465 25.3353 175.904 25.606C176.342 25.8673 176.692 26.2267 176.954 26.684C177.215 27.132 177.346 27.6407 177.346 28.21C177.346 28.77 177.215 29.2833 176.954 29.75C176.692 30.2073 176.342 30.5713 175.904 30.842C175.465 31.1127 174.984 31.248 174.462 31.248H171.984V35H170.472V25.2H174.462ZM174.434 29.792C174.686 29.792 174.914 29.722 175.12 29.582C175.325 29.4327 175.488 29.2413 175.61 29.008C175.74 28.7653 175.806 28.4993 175.806 28.21C175.806 27.7713 175.67 27.4027 175.4 27.104C175.129 26.8053 174.807 26.656 174.434 26.656H171.984V29.792H174.434ZM183.335 25.2C183.857 25.2 184.338 25.3353 184.777 25.606C185.215 25.8673 185.565 26.2267 185.827 26.684C186.088 27.132 186.219 27.6407 186.219 28.21C186.219 28.77 186.088 29.2833 185.827 29.75C185.565 30.2073 185.215 30.5713 184.777 30.842C184.338 31.1127 183.857 31.248 183.335 31.248H180.857V35H179.345V25.2H183.335ZM183.307 29.792C183.559 29.792 183.787 29.722 183.993 29.582C184.198 29.4327 184.361 29.2413 184.483 29.008C184.613 28.7653 184.679 28.4993 184.679 28.21C184.679 27.7713 184.543 27.4027 184.273 27.104C184.002 26.8053 183.68 26.656 183.307 26.656H180.857V29.792H183.307ZM197.122 30.1C197.122 30.8093 197.005 31.472 196.772 32.088C196.538 32.6947 196.202 33.2267 195.764 33.684C195.334 34.1413 194.826 34.5007 194.238 34.762C193.659 35.014 193.02 35.14 192.32 35.14C191.62 35.14 190.976 35.014 190.388 34.762C189.8 34.5007 189.291 34.1413 188.862 33.684C188.432 33.2267 188.101 32.6947 187.868 32.088C187.634 31.472 187.518 30.8093 187.518 30.1C187.518 29.3907 187.634 28.7327 187.868 28.126C188.101 27.51 188.432 26.9733 188.862 26.516C189.291 26.0587 189.8 25.704 190.388 25.452C190.976 25.1907 191.62 25.06 192.32 25.06C193.02 25.06 193.659 25.1907 194.238 25.452C194.826 25.704 195.334 26.0587 195.764 26.516C196.202 26.9733 196.538 27.51 196.772 28.126C197.005 28.7327 197.122 29.3907 197.122 30.1ZM195.582 30.1C195.582 29.4187 195.442 28.812 195.162 28.28C194.882 27.7387 194.494 27.314 194 27.006C193.514 26.6887 192.954 26.53 192.32 26.53C191.676 26.53 191.106 26.6887 190.612 27.006C190.126 27.314 189.744 27.7387 189.464 28.28C189.193 28.812 189.058 29.4187 189.058 30.1C189.058 30.7813 189.193 31.3927 189.464 31.934C189.744 32.466 190.126 32.8907 190.612 33.208C191.106 33.516 191.676 33.67 192.32 33.67C192.954 33.67 193.514 33.516 194 33.208C194.494 32.8907 194.882 32.4613 195.162 31.92C195.442 31.3787 195.582 30.772 195.582 30.1ZM206.435 28.322C206.435 28.91 206.258 29.456 205.903 29.96C205.558 30.464 205.105 30.8373 204.545 31.08L206.827 35.014L204.993 35L202.921 31.318H200.681V35H199.169V25.2H203.341C203.854 25.2 204.344 25.326 204.811 25.578C205.287 25.83 205.674 26.1893 205.973 26.656C206.281 27.1227 206.435 27.678 206.435 28.322ZM203.089 26.656H200.681V29.862H203.481C203.929 29.862 204.274 29.7033 204.517 29.386C204.769 29.0687 204.895 28.7093 204.895 28.308C204.895 27.7947 204.718 27.3933 204.363 27.104C204.008 26.8053 203.584 26.656 203.089 26.656ZM210.492 35V26.656H207.748V25.2H214.832V26.656H212.004V35H210.492Z" fill="#F05B3A"/>
<g clip-path="url(#clip0)">
<path fill-rule="evenodd" clip-rule="evenodd" d="M60.0932 30.0001C60.0932 46.5682 46.7613 60 30.3153 60C13.8693 60 0.537598 46.5682 0.537598 30.0001C0.537598 13.4314 13.8693 0 30.3153 0C46.7613 0 60.0932 13.4314 60.0932 30.0001Z" fill="#F05B3A"/>
<g clip-path="url(#clip1)">
<path fill-rule="evenodd" clip-rule="evenodd" d="M30.1909 52.6668C30.1909 52.6668 32.2948 51.2408 33.9804 48.9017C34.8312 47.7216 35.5747 46.3093 35.8876 44.7295C36.8212 40.0216 34.0207 37.7348 30.1909 37.7348C26.3597 37.7348 23.5598 40.0216 24.4925 44.7295C25.4263 49.4386 30.1909 52.6668 30.1909 52.6668Z" fill="#FFE600"/>
<path fill-rule="evenodd" clip-rule="evenodd" d="M30.2612 46.891C30.2612 46.891 27.6689 45.129 27.1618 42.5583C26.654 39.987 28.1769 38.7391 30.2612 38.7391C32.3444 38.7391 33.8679 39.987 33.3597 42.5583C32.8523 45.129 30.2612 46.891 30.2612 46.891Z" fill="#F05B3A"/>
<path opacity="0.6" fill-rule="evenodd" clip-rule="evenodd" d="M20.3101 33.2152C20.3101 33.6312 20.646 33.9685 21.0605 33.9685H39.5703C39.9848 33.9685 40.3207 33.6312 40.3207 33.2152V31.4576H20.3101V33.2152Z" fill="white"/>
<path opacity="0.3" fill-rule="evenodd" clip-rule="evenodd" d="M22.8115 35.7261C22.8115 36.1421 23.1475 36.4793 23.5619 36.4793H37.0691C37.4836 36.4793 37.8195 36.1421 37.8195 35.7261V33.9685H22.8115V35.7261Z" fill="white"/>
<path fill-rule="evenodd" clip-rule="evenodd" d="M17.8086 30.2022C17.8086 30.8955 18.3685 31.4576 19.0593 31.4576H41.5713C42.262 31.4576 42.8219 30.8955 42.8219 30.2022V15.5615C42.8219 15.1397 42.6109 14.7461 42.2602 14.5137L31.0042 7.05642C30.5863 6.77957 30.0442 6.77957 29.6263 7.05642L18.3703 14.5137C18.0196 14.7461 17.8086 15.1397 17.8086 15.5615V30.2022Z" fill="white"/>
<path fill-rule="evenodd" clip-rule="evenodd" d="M40.9587 16.2536C41.4437 15.9471 41.4416 15.2403 40.9548 14.9367L30.7963 8.60134C30.5416 8.44256 30.2183 8.44386 29.965 8.60468L19.9207 14.9814C19.4393 15.287 19.4392 15.9882 19.9204 16.294L29.9622 22.6735C30.2169 22.8353 30.5424 22.8357 30.7976 22.6745L40.9587 16.2536Z" fill="#F05B3A"/>
</g>
</g>
<path d="M88.5707 22.2L83.0821 30.5808V37.32H80.7666V30.624L74.8491 22.2H77.6363L81.9672 28.464L85.9122 22.2H88.5707Z" fill="white"/>
<path d="M98.4348 37.32L97.0198 33.5616H90.7378L89.3228 37.32H86.9644L92.7746 22.2H95.133L100.9 37.32H98.4348ZM92.7318 28.2912L91.5954 31.3152H96.1836L95.0044 28.2048C94.8186 27.7008 94.6328 27.1608 94.447 26.5848C94.2611 25.9944 94.0753 25.404 93.8895 24.8136C93.6894 25.4184 93.4893 26.0232 93.2892 26.628C93.1034 27.2328 92.9176 27.7872 92.7318 28.2912Z" fill="white"/>
<path d="M105.171 22.2L110.081 30.2568L115.076 22.2H117.22V37.32H114.905V31.1208C114.905 30.2136 114.919 29.3568 114.948 28.5504C114.991 27.7296 115.055 26.916 115.141 26.1096L110.724 32.9784H109.309L105 26.1312C105.085 26.9376 105.143 27.744 105.171 28.5504C105.2 29.3568 105.214 30.2136 105.214 31.1208V37.32H102.899V22.2H105.171Z" fill="white"/>
<path d="M123.058 22.2L127.967 30.2568L132.963 22.2H135.107V37.32H132.791V31.1208C132.791 30.2136 132.806 29.3568 132.834 28.5504C132.877 27.7296 132.941 26.916 133.027 26.1096L128.611 32.9784H127.196L122.886 26.1312C122.972 26.9376 123.029 27.744 123.058 28.5504C123.086 29.3568 123.101 30.2136 123.101 31.1208V37.32H120.785V22.2H123.058Z" fill="white"/>
<defs>
<clipPath id="clip0">
<rect width="59.5556" height="60" fill="white" transform="translate(0.537598)"/>
</clipPath>
<clipPath id="clip1">
<rect width="25.0133" height="46.2" fill="white" transform="translate(17.8086 6.60001)"/>
</clipPath>
</defs>
</svg>
