<svg width="207" height="40" viewBox="0 0 207 40" fill="none" xmlns="http://www.w3.org/2000/svg">
<mask id="mask0" mask-type="alpha" maskUnits="userSpaceOnUse" x="0" y="0" width="41" height="40">
<path d="M0 0H40.6287V40H0V0Z" fill="white"/>
</mask>
<g mask="url(#mask0)">
<path fill-rule="evenodd" clip-rule="evenodd" d="M40.6287 20.0001C40.6287 31.0454 31.5337 40 20.3143 40C9.09488 40 0 31.0454 0 20.0001C0 8.95427 9.09488 0 20.3143 0C31.5337 0 40.6287 8.95427 40.6287 20.0001Z" fill="#F05B3A"/>
</g>
<path opacity="0.7" fill-rule="evenodd" clip-rule="evenodd" d="M13.3154 22.0622C13.3154 22.5263 13.6975 22.9024 14.1688 22.9024H26.2056C26.6769 22.9024 27.059 22.5263 27.059 22.0622V21.2798H13.3154V22.0622Z" fill="white"/>
<path opacity="0.4" fill-rule="evenodd" clip-rule="evenodd" d="M14.8394 23.6836C14.8394 24.1476 15.2214 24.5238 15.6928 24.5238H24.6824C25.1538 24.5238 25.5359 24.1476 25.5359 23.6836V22.9026H14.8394V23.6836Z" fill="white"/>
<path d="M12.1736 9.72201C11.9296 9.87667 11.7822 10.1428 11.7822 10.4284V20.4396C11.7822 20.9036 12.1643 21.2798 12.6356 21.2798H27.7394C28.2108 21.2798 28.5928 20.9036 28.5928 20.4396L28.5926 10.4282C28.5926 10.1426 28.4452 9.87653 28.2013 9.72187L20.6497 4.93386C20.3684 4.75545 20.007 4.75544 19.7256 4.93385L12.1736 9.72201Z" fill="white"/>
<path fill-rule="evenodd" clip-rule="evenodd" d="M27.1394 10.7985C27.458 10.5999 27.4567 10.1418 27.1368 9.94504L20.4626 5.83929C20.2953 5.73639 20.0829 5.73723 19.9165 5.84145L13.3173 9.97403C13.0011 10.1721 13.001 10.6265 13.3172 10.8247L19.9146 14.959C20.082 15.0639 20.2959 15.0642 20.4635 14.9597L27.1394 10.7985Z" fill="#F05B3A"/>
<path fill-rule="evenodd" clip-rule="evenodd" d="M20.1741 35.6C20.1741 35.6 21.6097 34.6456 22.7599 33.0802C23.3405 32.2904 23.8478 31.3452 24.0613 30.2879C24.6984 27.1371 22.7875 25.6067 20.1741 25.6067C17.5599 25.6067 15.6493 27.1371 16.2857 30.2879C16.923 33.4395 20.1741 35.6 20.1741 35.6Z" fill="#FFE600"/>
<path fill-rule="evenodd" clip-rule="evenodd" d="M20.222 31.7345C20.222 31.7345 18.4532 30.5553 18.1071 28.8348C17.7606 27.114 18.7998 26.2788 20.222 26.2788C21.6436 26.2788 22.6831 27.114 22.3363 28.8348C21.9901 30.5553 20.222 31.7345 20.222 31.7345Z" fill="#F05B3A"/>
<path d="M59.7402 15.1201L55.9959 20.7073V25.2001H54.4163V20.7361L50.3794 15.1201H52.2808L55.2353 19.2961L57.9266 15.1201H59.7402Z" fill="white"/>
<path d="M65.9283 24.2065H65.9137C65.6017 24.5041 65.1726 24.7681 64.6266 24.9985C64.0805 25.2289 63.5101 25.3441 62.9153 25.3441C62.1157 25.3441 61.4088 25.1809 60.7945 24.8545C60.1899 24.5185 59.717 24.0625 59.3757 23.4865C59.0344 22.9009 58.8638 22.2385 58.8638 21.4993C58.8638 20.6545 59.0442 19.9345 59.405 19.3393C59.7658 18.7345 60.2436 18.2737 60.8384 17.9569C61.4332 17.6305 62.0816 17.4673 62.7837 17.4673C63.4272 17.4673 64.0123 17.6257 64.5388 17.9425C65.0654 18.2497 65.4847 18.6769 65.7967 19.2241C66.1087 19.7713 66.2647 20.4097 66.2647 21.1393L66.2501 21.7729H60.3703C60.4581 22.4545 60.7409 22.9969 61.2186 23.4001C61.7062 23.7937 62.3205 23.9905 63.0616 23.9905C63.5979 23.9905 64.0318 23.8945 64.3633 23.7025C64.6948 23.5009 64.9679 23.3089 65.1824 23.1265L65.9283 24.2065ZM62.7837 18.8353C62.2084 18.8353 61.7062 18.9697 61.2772 19.2385C60.8481 19.4977 60.5653 19.9489 60.4288 20.5921H64.729V20.4913C64.6997 20.1649 64.5876 19.8769 64.3926 19.6273C64.2073 19.3777 63.9733 19.1857 63.6905 19.0513C63.4077 18.9073 63.1054 18.8353 62.7837 18.8353Z" fill="white"/>
<path d="M69.9204 25.2001H68.4139V19.0801H66.8196V17.6401H68.4139V15.7105H69.9204V17.6401H71.7048V19.0801H69.9204V25.2001Z" fill="white"/>
<path d="M83.436 25.2001L82.4707 22.6945H78.1852L77.2198 25.2001H75.611L79.5747 15.1201H81.1836L85.1181 25.2001H83.436ZM79.5454 19.1809L78.7702 21.1969H81.9003L81.0958 19.1233C80.9691 18.7873 80.8423 18.4273 80.7155 18.0433C80.5888 17.6497 80.462 17.2561 80.3353 16.8625C80.1987 17.2657 80.0622 17.6689 79.9257 18.0721C79.799 18.4753 79.6722 18.8449 79.5454 19.1809Z" fill="white"/>
<path d="M90.1231 17.4817C90.8154 17.4817 91.3517 17.6209 91.732 17.8993C92.1123 18.1777 92.3756 18.5521 92.5218 19.0225C92.6779 19.4929 92.7559 20.0161 92.7559 20.5921V25.2001H91.2493V20.6929C91.2493 20.3281 91.2006 20.0017 91.1031 19.7137C91.0056 19.4257 90.8398 19.2001 90.6058 19.0369C90.3718 18.8737 90.0451 18.8065 89.6258 18.8353C89.2358 18.8353 88.8896 18.9169 88.5874 19.0801C88.2851 19.2433 88.0462 19.4593 87.8707 19.7281C87.6951 19.9969 87.6074 20.2945 87.6074 20.6209V25.2001H86.1009V17.6401H87.6074V18.8353C87.8414 18.4801 88.1827 18.1681 88.6312 17.8993C89.0798 17.6209 89.5771 17.4817 90.1231 17.4817Z" fill="white"/>
<path d="M101.718 21.4129C101.718 22.1809 101.542 22.8625 101.191 23.4577C100.85 24.0433 100.382 24.5041 99.7871 24.8401C99.2021 25.1761 98.5439 25.3441 97.8126 25.3441C97.0813 25.3441 96.4182 25.1761 95.8234 24.8401C95.2286 24.5041 94.7557 24.0433 94.4046 23.4577C94.0634 22.8625 93.8927 22.1809 93.8927 21.4129C93.8927 20.6449 94.0634 19.9681 94.4046 19.3825C94.7557 18.7873 95.2286 18.3217 95.8234 17.9857C96.4182 17.6497 97.0813 17.4817 97.8126 17.4817C98.5439 17.4817 99.2021 17.6497 99.7871 17.9857C100.382 18.3217 100.85 18.7873 101.191 19.3825C101.542 19.9681 101.718 20.6449 101.718 21.4129ZM100.182 21.4129C100.192 20.9041 100.089 20.4577 99.8749 20.0737C99.6701 19.6801 99.3873 19.3777 99.0266 19.1665C98.6658 18.9457 98.2611 18.8353 97.8126 18.8353C97.364 18.8353 96.9545 18.9457 96.584 19.1665C96.2232 19.3777 95.9355 19.6801 95.721 20.0737C95.5162 20.4577 95.4187 20.9041 95.4285 21.4129C95.4187 21.9121 95.5162 22.3585 95.721 22.7521C95.9355 23.1361 96.2232 23.4385 96.584 23.6593C96.9545 23.8801 97.364 23.9905 97.8126 23.9905C98.2611 23.9905 98.6658 23.8801 99.0266 23.6593C99.3873 23.4385 99.6701 23.1361 99.8749 22.7521C100.089 22.3585 100.192 21.9121 100.182 21.4129Z" fill="white"/>
<path d="M105.378 25.2001H103.871V19.0801H102.277V17.6401H103.871V15.7105H105.378V17.6401H107.162V19.0801H105.378V25.2001Z" fill="white"/>
<path d="M112.117 17.4817C112.81 17.4817 113.346 17.6209 113.726 17.8993C114.107 18.1777 114.37 18.5521 114.516 19.0225C114.672 19.4929 114.75 20.0161 114.75 20.5921V25.2001H113.244V20.6929C113.244 20.3281 113.195 20.0017 113.097 19.7137C113 19.4257 112.834 19.2001 112.6 19.0369C112.366 18.8737 112.039 18.8065 111.62 18.8353C111.23 18.8353 110.884 18.9169 110.582 19.0801C110.279 19.2433 110.041 19.4593 109.865 19.7281C109.689 19.9969 109.602 20.2945 109.602 20.6209V25.2001H108.095V14.5441H109.602V18.8353C109.836 18.4801 110.177 18.1681 110.626 17.8993C111.074 17.6209 111.571 17.4817 112.117 17.4817Z" fill="white"/>
<path d="M122.952 24.2065H122.937C122.625 24.5041 122.196 24.7681 121.65 24.9985C121.104 25.2289 120.533 25.3441 119.939 25.3441C119.139 25.3441 118.432 25.1809 117.818 24.8545C117.213 24.5185 116.74 24.0625 116.399 23.4865C116.058 22.9009 115.887 22.2385 115.887 21.4993C115.887 20.6545 116.067 19.9345 116.428 19.3393C116.789 18.7345 117.267 18.2737 117.862 17.9569C118.456 17.6305 119.105 17.4673 119.807 17.4673C120.45 17.4673 121.036 17.6257 121.562 17.9425C122.089 18.2497 122.508 18.6769 122.82 19.2241C123.132 19.7713 123.288 20.4097 123.288 21.1393L123.273 21.7729H117.394C117.481 22.4545 117.764 22.9969 118.242 23.4001C118.729 23.7937 119.344 23.9905 120.085 23.9905C120.621 23.9905 121.055 23.8945 121.387 23.7025C121.718 23.5009 121.991 23.3089 122.206 23.1265L122.952 24.2065ZM119.807 18.8353C119.232 18.8353 118.729 18.9697 118.3 19.2385C117.871 19.4977 117.589 19.9489 117.452 20.5921H121.752V20.4913C121.723 20.1649 121.611 19.8769 121.416 19.6273C121.231 19.3777 120.997 19.1857 120.714 19.0513C120.431 18.9073 120.129 18.8353 119.807 18.8353Z" fill="white"/>
<path d="M128.787 19.2385C128.689 19.1905 128.567 19.1521 128.421 19.1233C128.284 19.0849 128.138 19.0657 127.982 19.0657C127.67 19.0657 127.363 19.1473 127.061 19.3105C126.758 19.4641 126.505 19.6897 126.3 19.9873C126.105 20.2753 126.008 20.6209 126.008 21.0241V25.2001H124.486V17.6401H126.008V19.0657C126.222 18.6049 126.544 18.2257 126.973 17.9281C127.412 17.6305 127.87 17.4817 128.348 17.4817C128.709 17.4817 128.986 17.5297 129.181 17.6257L128.787 19.2385Z" fill="white"/>
<path d="M135.538 15.1201L138.887 20.4913L142.295 15.1201H143.758V25.2001H142.178V21.0673C142.178 20.4625 142.188 19.8913 142.208 19.3537C142.237 18.8065 142.281 18.2641 142.339 17.7265L139.326 22.3057H138.361L135.421 17.7409C135.479 18.2785 135.518 18.8161 135.538 19.3537C135.557 19.8913 135.567 20.4625 135.567 21.0673V25.2001H133.988V15.1201H135.538Z" fill="white"/>
<path d="M152.962 17.6401V25.2001H151.441V24.0337C151.207 24.3505 150.86 24.6481 150.402 24.9265C149.944 25.2049 149.412 25.3441 148.808 25.3441C148.164 25.3441 147.574 25.1761 147.038 24.8401C146.511 24.5041 146.092 24.0385 145.78 23.4433C145.468 22.8481 145.312 22.1665 145.312 21.3985C145.312 20.6305 145.473 19.9537 145.795 19.3681C146.117 18.7729 146.56 18.3121 147.126 17.9857C147.691 17.6497 148.335 17.4817 149.056 17.4817C149.593 17.4817 150.061 17.5969 150.461 17.8273C150.87 18.0577 151.197 18.3265 151.441 18.6337V17.6401H152.962ZM149.159 23.9761C149.627 23.9761 150.036 23.8657 150.387 23.6449C150.739 23.4145 151.012 23.1073 151.207 22.7233C151.402 22.3297 151.499 21.8881 151.499 21.3985C151.499 20.9185 151.402 20.4865 151.207 20.1025C151.012 19.7185 150.739 19.4161 150.387 19.1953C150.036 18.9649 149.627 18.8497 149.159 18.8497C148.71 18.8497 148.311 18.9601 147.96 19.1809C147.608 19.4017 147.335 19.7041 147.14 20.0881C146.945 20.4721 146.848 20.9089 146.848 21.3985C146.848 21.8881 146.945 22.3297 147.14 22.7233C147.335 23.1073 147.608 23.4145 147.96 23.6449C148.311 23.8657 148.71 23.9761 149.159 23.9761Z" fill="white"/>
<path d="M155.636 15.9985C155.294 15.9985 155.041 15.9121 154.875 15.7393C154.709 15.5665 154.626 15.3409 154.626 15.0625C154.626 14.8225 154.709 14.6065 154.875 14.4145C155.041 14.2225 155.294 14.1265 155.636 14.1265C155.977 14.1265 156.23 14.2129 156.396 14.3857C156.562 14.5585 156.645 14.7841 156.645 15.0625C156.645 15.3025 156.562 15.5185 156.396 15.7105C156.23 15.9025 155.977 15.9985 155.636 15.9985ZM156.411 25.2001H154.904V17.6401H156.411V25.2001Z" fill="white"/>
<path d="M158.258 25.2001V14.5441H159.765V25.2001H158.258Z" fill="white"/>
<path d="M167.067 15.1201L170.417 20.4913L173.825 15.1201H175.287V25.2001H173.708V21.0673C173.708 20.4625 173.718 19.8913 173.737 19.3537C173.766 18.8065 173.81 18.2641 173.869 17.7265L170.856 22.3057H169.89L166.95 17.7409C167.009 18.2785 167.048 18.8161 167.067 19.3537C167.087 19.8913 167.097 20.4625 167.097 21.0673V25.2001H165.517V15.1201H167.067Z" fill="white"/>
<path d="M183.935 24.2065H183.921C183.609 24.5041 183.18 24.7681 182.634 24.9985C182.088 25.2289 181.517 25.3441 180.922 25.3441C180.123 25.3441 179.416 25.1809 178.802 24.8545C178.197 24.5185 177.724 24.0625 177.383 23.4865C177.041 22.9009 176.871 22.2385 176.871 21.4993C176.871 20.6545 177.051 19.9345 177.412 19.3393C177.773 18.7345 178.251 18.2737 178.845 17.9569C179.44 17.6305 180.089 17.4673 180.791 17.4673C181.434 17.4673 182.019 17.6257 182.546 17.9425C183.072 18.2497 183.492 18.6769 183.804 19.2241C184.116 19.7713 184.272 20.4097 184.272 21.1393L184.257 21.7729H178.377C178.465 22.4545 178.748 22.9969 179.226 23.4001C179.713 23.7937 180.328 23.9905 181.069 23.9905C181.605 23.9905 182.039 23.8945 182.37 23.7025C182.702 23.5009 182.975 23.3089 183.189 23.1265L183.935 24.2065ZM180.791 18.8353C180.215 18.8353 179.713 18.9697 179.284 19.2385C178.855 19.4977 178.572 19.9489 178.436 20.5921H182.736V20.4913C182.707 20.1649 182.595 19.8769 182.4 19.6273C182.214 19.3777 181.98 19.1857 181.698 19.0513C181.415 18.9073 181.112 18.8353 180.791 18.8353Z" fill="white"/>
<path d="M189.77 19.2385C189.673 19.1905 189.551 19.1521 189.405 19.1233C189.268 19.0849 189.122 19.0657 188.966 19.0657C188.654 19.0657 188.347 19.1473 188.044 19.3105C187.742 19.4641 187.489 19.6897 187.284 19.9873C187.089 20.2753 186.991 20.6209 186.991 21.0241V25.2001H185.47V17.6401H186.991V19.0657C187.206 18.6049 187.528 18.2257 187.957 17.9281C188.395 17.6305 188.854 17.4817 189.332 17.4817C189.692 17.4817 189.97 17.5297 190.165 17.6257L189.77 19.2385Z" fill="white"/>
<path d="M191.769 26.4529C192.062 26.6737 192.428 26.8513 192.866 26.9857C193.305 27.1201 193.734 27.1873 194.153 27.1873C194.943 27.1873 195.548 26.9953 195.967 26.6113C196.386 26.2369 196.596 25.6705 196.596 24.9121V23.9905C196.46 24.2209 196.265 24.4417 196.011 24.6529C195.757 24.8545 195.46 25.0225 195.119 25.1569C194.777 25.2817 194.422 25.3441 194.051 25.3441C193.339 25.3441 192.696 25.1761 192.12 24.8401C191.545 24.5041 191.087 24.0385 190.745 23.4433C190.414 22.8481 190.248 22.1713 190.248 21.4129C190.248 20.6449 190.414 19.9681 190.745 19.3825C191.077 18.7873 191.526 18.3217 192.091 17.9857C192.666 17.6497 193.305 17.4817 194.007 17.4817C194.592 17.4817 195.109 17.6113 195.558 17.8705C196.016 18.1201 196.362 18.3937 196.596 18.6913V17.6401H198.103V24.7393C198.103 25.6417 197.917 26.3665 197.547 26.9137C197.186 27.4705 196.703 27.8737 196.099 28.1233C195.504 28.3825 194.855 28.5121 194.153 28.5121C193.607 28.5121 193.061 28.4257 192.515 28.2529C191.979 28.0897 191.545 27.8737 191.214 27.6049L191.769 26.4529ZM194.212 18.8353C193.744 18.8353 193.325 18.9505 192.954 19.1809C192.593 19.4017 192.306 19.7089 192.091 20.1025C191.886 20.4865 191.784 20.9233 191.784 21.4129C191.784 21.9025 191.886 22.3393 192.091 22.7233C192.306 23.1073 192.593 23.4145 192.954 23.6449C193.325 23.8657 193.744 23.9761 194.212 23.9761C194.699 23.9761 195.124 23.8657 195.484 23.6449C195.855 23.4241 196.143 23.1217 196.347 22.7377C196.552 22.3441 196.655 21.9025 196.655 21.4129C196.655 20.9137 196.552 20.4721 196.347 20.0881C196.143 19.7041 195.855 19.4017 195.484 19.1809C195.124 18.9505 194.699 18.8353 194.212 18.8353Z" fill="white"/>
<path d="M206.372 24.2065H206.358C206.046 24.5041 205.617 24.7681 205.071 24.9985C204.525 25.2289 203.954 25.3441 203.359 25.3441C202.56 25.3441 201.853 25.1809 201.239 24.8545C200.634 24.5185 200.161 24.0625 199.82 23.4865C199.479 22.9009 199.308 22.2385 199.308 21.4993C199.308 20.6545 199.488 19.9345 199.849 19.3393C200.21 18.7345 200.688 18.2737 201.283 17.9569C201.877 17.6305 202.526 17.4673 203.228 17.4673C203.871 17.4673 204.456 17.6257 204.983 17.9425C205.51 18.2497 205.929 18.6769 206.241 19.2241C206.553 19.7713 206.709 20.4097 206.709 21.1393L206.694 21.7729H200.814C200.902 22.4545 201.185 22.9969 201.663 23.4001C202.15 23.7937 202.765 23.9905 203.506 23.9905C204.042 23.9905 204.476 23.8945 204.807 23.7025C205.139 23.5009 205.412 23.3089 205.627 23.1265L206.372 24.2065ZM203.228 18.8353C202.653 18.8353 202.15 18.9697 201.721 19.2385C201.292 19.4977 201.009 19.9489 200.873 20.5921H205.173V20.4913C205.144 20.1649 205.032 19.8769 204.837 19.6273C204.651 19.3777 204.417 19.1857 204.135 19.0513C203.852 18.9073 203.55 18.8353 203.228 18.8353Z" fill="white"/>
</svg>
